<svg width="73" height="38" viewBox="0 0 73 38" xmlns="http://www.w3.org/2000/svg"><title>BD523550-23A7-4D5E-9B9E-1FCDE44FF11A</title><g fill="none" fill-rule="evenodd"><path d="M61.103 38H11.897C5.327 38 0 32.495 0 25.704V12.297C0 5.506 5.326 0 11.897 0h49.206C67.673 0 73 5.506 73 12.297v13.407C73 32.494 67.674 38 61.103 38z" fill="#FEC526"/><path d="M31.598 27.89c-3.5-1.548-5.938-5.018-5.938-9.05 0-5.476 4.495-9.915 10.04-9.915" stroke="#FFF" stroke-width="3"/><path d="M40.546 8.925c3.792 1.616 6.387 5.14 6.309 9.188-.106 5.495-5.1 9.873-11.155 9.776"/><path d="M40.163 8.925c3.352 1.64 5.646 5.215 5.577 9.322-.05 2.96-1.318 5.601-3.298 7.413" stroke="#FFF" stroke-width="3" stroke-linecap="round" stroke-linejoin="round"/><path fill="#FFF" d="M29.854 16.735L35.7 8.739l-10.04-.93zM41.7 21.197l-6 7.834 10.041 1.091z"/></g></svg>