<svg width="38" height="73" viewBox="0 0 38 73" xmlns="http://www.w3.org/2000/svg"><title>51751B81-F1EE-47CC-B9E5-83A749BC6BFE</title><g fill="none" fill-rule="evenodd"><path d="M0 61.103V11.897C0 5.327 5.505 0 12.296 0h13.407C32.494 0 38 5.326 38 11.897v49.206C38 67.673 32.494 73 25.703 73H12.296C5.506 73 0 67.674 0 61.103z" fill="#FEC526"/><path d="M10.11 31.598c1.548-3.5 5.018-5.938 9.05-5.938 5.476 0 9.915 4.495 9.915 10.04" stroke="#FFF" stroke-width="3"/><path d="M29.075 40.546c-1.616 3.792-5.14 6.387-9.188 6.309-5.495-.106-9.873-5.1-9.776-11.155"/><path d="M29.075 40.163c-1.64 3.352-5.215 5.646-9.322 5.577-2.96-.05-5.601-1.318-7.413-3.298" stroke="#FFF" stroke-width="3" stroke-linecap="round" stroke-linejoin="round"/><path fill="#FFF" d="M21.265 29.854l7.996 5.846.93-10.04zM16.803 41.7l-7.834-6-1.091 10.041z"/></g></svg>