<svg width="14" height="15" viewBox="0 0 14 15" xmlns="http://www.w3.org/2000/svg"><title>653B4931-D45F-4427-B47D-7BB652806CD9</title><g fill="none" fill-rule="evenodd"><path fill-opacity=".32" fill="#D8D8D8" opacity=".632" d="M-72-17h1922v49H-72z"/><path d="M5.584 0C2.496 0 0 2.613 0 5.845c0 3.232 2.496 5.846 5.584 5.846a5.368 5.368 0 0 0 2.986-.914L12.604 15 14 13.539 10.018 9.38a5.98 5.98 0 0 0 1.15-3.535C11.167 2.613 8.67 0 5.583 0zm0 1.375c2.364 0 4.27 1.995 4.27 4.47 0 2.476-1.906 4.47-4.27 4.47-2.365 0-4.27-1.994-4.27-4.47 0-2.475 1.905-4.47 4.27-4.47z" opacity=".504" fill="#4B4E53"/></g></svg>