<svg width="122" height="27" viewBox="0 0 122 27" xmlns="http://www.w3.org/2000/svg"><title>015AC805-8F72-4D1F-8579-78E1D06451A7</title><g fill="#FFF" fill-rule="evenodd"><path d="M17 6c0 .55-.45 1-1 1h-4c-.551 0-1-.45-1-1V2a1 1 0 0 1 1-1h4a1 1 0 0 1 1 1v4m-6 5a1 1 0 0 1-1 1H6c-.551 0-1-.448-1-1V7c0-.552.449-1 1-1h4a1 1 0 0 1 1 1v4"/><path d="M22 11a1 1 0 0 1-1 1h-4a1 1 0 0 1-1-1V7a1 1 0 0 1 1-1h4a1 1 0 0 1 1 1v4m-.42 10.023c0 .485-.406.88-.908.88h-3.635a.895.895 0 0 1-.909-.88v-3.526c0-.486.406-.881.909-.881h3.635c.502 0 .909.395.909.881v3.526m-5.462 5.097c0 .485-.407.88-.907.88h-3.637c-.504 0-.91-.395-.91-.88v-3.526c0-.486.406-.882.91-.882h3.637c.5 0 .907.396.907.882v3.525m0-10.394a.896.896 0 0 1-.907.883h-3.637a.896.896 0 0 1-.91-.883V12.2c0-.487.406-.88.91-.88h3.637c.5 0 .907.393.907.88v3.524m-10.665.001a.896.896 0 0 1-.91.883H.909A.897.897 0 0 1 0 15.725V12.2c0-.487.408-.88.91-.88h3.634c.503 0 .91.393.91.88v3.524M28 16.998A1 1 0 0 1 27 18h-4.003A.998.998 0 0 1 22 16.998v-4c0-.552.444-.998.997-.998H27c.553 0 1 .446 1 .999v4M28 6c0 .55-.447 1-1 1h-4.003A.999.999 0 0 1 22 6V2c0-.55.444-1 .997-1H27a1 1 0 0 1 1 1v4m10.664-1.319H41v1.58h-2.336v5.867c0 1.878.193 2.199 1.328 2.199.365 0 .708-.069 1.008-.183v1.65c-.857.16-1.136.206-1.564.206-1.136 0-2.079-.619-2.358-1.58-.171-.574-.213-.987-.213-2.384V6.285H35V4.68h1.865V2h1.82l-.021 2.681m7.411 1.134c.874-1.106 2.124-1.682 3.675-1.682 1.95 0 3.5 1.008 3.974 2.593.225.818.276 1.322.276 3.123V16h-2.1V9.393c0-2.643-.725-3.603-2.675-3.603-1.275 0-2.4.672-2.825 1.73-.225.576-.325 1.177-.325 2.402V16H44V0h2.075v5.815m15.473.782c-1.977 0-3.28 1.291-3.449 3.405h6.802c-.072-2.043-1.423-3.405-3.353-3.405m-3.473 4.979v.093c-.024 2.16 1.568 3.781 3.69 3.781 1.57 0 2.75-.893 3.064-2.254H67C66.446 15.615 64.54 17 61.717 17 58.22 17 56 14.675 56 10.988 56 7.396 58.195 5 61.525 5 64.878 5 67 7.373 67 11.13v.446h-8.925m16.378 3.778c2.092 0 3.455-1.695 3.455-4.33 0-2.683-1.34-4.377-3.455-4.377-2.068 0-3.36 1.624-3.36 4.235 0 2.777 1.268 4.472 3.36 4.472M74.547 5C77.813 5 80 7.424 80 10.977 80 14.623 77.813 17 74.5 17c-3.29 0-5.5-2.4-5.5-6.023C69 7.377 71.21 5 74.547 5m10.16.266l-.064 1.847C85.759 5.51 86.569 5 87.993 5c.394 0 .569.024 1.007.145v1.846c-.416-.097-.569-.121-.964-.121-1.03 0-1.905.389-2.475 1.142-.525.703-.722 1.627-.722 3.425V17H83V5.266h1.707m11.841 1.331c-1.978 0-3.28 1.291-3.448 3.405h6.8c-.072-2.043-1.423-3.405-3.353-3.405m-3.473 4.979v.093c-.025 2.16 1.567 3.781 3.69 3.781 1.568 0 2.75-.893 3.064-2.254H102C101.445 15.615 99.539 17 96.718 17 93.218 17 91 14.675 91 10.988 91 7.396 93.195 5 96.524 5 99.876 5 102 7.373 102 11.13v.446h-8.925m13.758-4.609C107.812 5.486 108.69 5 110.398 5c1.783 0 2.914.704 3.517 2.162C114.92 5.655 116.1 5 117.782 5c1.556 0 2.938.655 3.565 1.7.552.898.653 1.458.653 3.425V17h-2.059v-6.34c-.025-3.013-.577-3.912-2.436-3.912-1.104 0-2.134.632-2.56 1.58-.302.656-.378 1.287-.378 2.671V17h-2.035v-6.437c-.024-2.72-.753-3.815-2.586-3.815-1.255 0-2.31.803-2.611 1.943-.177.657-.25 1.556-.25 2.989V17H105V5.266h1.933l-.1 1.7"/></g></svg>